Coordinates
version=1
nRows=24
nColumns=22
inDegrees=yes

Units are S.I. units (second, meters, Newtons, ...)
If the header above contains a line with 'inDegrees', this indicates whether rotational values are in degrees (yes) or radians (no).

endheader
time	pelvis_tilt	pelvis_list	pelvis_rotation	pelvis_tx	pelvis_ty	pelvis_tz	hip_flexion_r	hip_adduction_r	hip_rotation_r	knee_angle_r	ankle_angle_r	subtalar_angle_r	hip_flexion_l	hip_adduction_l	hip_rotation_l	knee_angle_l	ankle_angle_l	subtalar_angle_l	lumbar_extension	lumbar_bending	lumbar_rotation
      1.28000000	    -12.48183256	      0.89745661	    -31.42580766	     -0.95175153	      0.96072300	     -0.05834062	     12.40028650	     10.64706275	      0.47335764	    -20.46017607	     23.99082773	    -10.86363270	     43.36255425	     -4.61944259	      4.23570523	    -42.74230096	     18.33563717	     -3.19964881	     -2.96098070	      6.08448279	      9.43350016
      1.29000000	    -12.46820943	      0.94120986	    -31.51611278	     -0.94782239	      0.96016173	     -0.05641740	     12.07450476	     10.58863641	      0.61156406	    -20.38274051	     24.21878789	    -10.84317213	     43.58810926	     -4.63326200	      4.02985874	    -41.68656742	     18.04110948	     -2.81752670	     -3.01593036	      6.03221097	      9.41501824
      1.30000000	    -12.47009348	      1.01246317	    -31.61158179	     -0.94378353	      0.95951530	     -0.05447892	     11.79387003	     10.50902946	      0.74211659	    -20.34797848	     24.45763417	    -10.82959173	     43.81626489	     -4.62992188	      3.83439538	    -40.60701764	     17.73833955	     -2.51784083	     -3.03952358	      5.96235448	      9.41424409
      1.31000000	    -12.48083313	      1.08614430	    -31.71300966	     -0.93962963	      0.95881421	     -0.05248735	     11.52140592	     10.43364968	      0.90406811	    -20.32793658	     24.70724823	    -10.78146295	     44.02647183	     -4.62517927	      3.67412296	    -39.51089097	     17.51416509	     -2.10018144	     -3.05263603	      5.89071486	      9.41104585
      1.32000000	    -12.51286391	      1.18619707	    -31.82376735	     -0.93535776	      0.95802608	     -0.05046949	     11.29756338	     10.33991088	      1.04593604	    -20.34833187	     24.96433199	    -10.74894674	     44.24610131	     -4.61414325	      3.51043923	    -38.41095700	     17.24869042	     -1.81667978	     -3.02615304	      5.80801729	      9.43739581
      1.33000000	    -12.55326652	      1.29537949	    -31.94944013	     -0.93097404	      0.95718716	     -0.04839728	     11.09388101	     10.24371103	      1.21602734	    -20.40042275	     25.22509975	    -10.69536420	     44.44902390	     -4.60634259	      3.35163140	    -37.31067538	     17.00358604	     -1.52358187	     -2.98585568	      5.71757715	      9.46988451
      1.34000000	    -12.59803335	      1.41333533	    -32.09719590	     -0.92646642	      0.95630697	     -0.04628684	     10.91183681	     10.14082875	      1.42201277	    -20.49640178	     25.49108233	    -10.56584372	     44.63010871	     -4.60482073	      3.18451667	    -36.22216824	     16.79127038	     -1.12261534	     -2.93737452	      5.62714148	      9.51749324
      1.35000000	    -12.65209532	      1.54533366	    -32.26194234	     -0.92183474	      0.95538671	     -0.04411791	     10.74581459	     10.02718811	      1.63028588	    -20.60595499	     25.74421099	    -10.50210695	     44.79905259	     -4.60869850	      2.99049100	    -35.15717989	     16.48910346	     -0.91451202	     -2.86798330	      5.52538076	      9.57632323
      1.36000000	    -12.69498962	      1.70130546	    -32.48369953	     -0.91708417	      0.95444559	     -0.04189742	     10.61369993	      9.88256007	      1.86615267	    -20.79569658	     26.01546896	    -10.33166979	     44.92601703	     -4.61955050	      2.75038458	    -34.11823054	     16.25691767	     -0.57370364	     -2.79881031	      5.39991790	      9.73347900
      1.37000000	    -12.74747545	      1.85095219	    -32.71535377	     -0.91220496	      0.95348351	     -0.03961549	     10.47668272	      9.75101280	      2.15083678	    -20.98354606	     26.25989004	    -10.19697681	     45.03811756	     -4.64317250	      2.49083972	    -33.14111596	     15.95885172	     -0.33014079	     -2.72149644	      5.28799558	      9.83968631
      1.38000000	    -12.79172576	      2.00253499	    -32.99377201	     -0.90720504	      0.95251104	     -0.03727786	     10.36020642	      9.60840843	      2.45433215	    -21.24267035	     26.52493648	     -9.84707458	     45.10717088	     -4.67339975	      2.23130837	    -32.23107473	     15.77072009	      0.10125355	     -2.65231001	      5.17175868	     10.02305374
      1.39000000	    -12.82678031	      2.17118624	    -33.31027723	     -0.90208968	      0.95152589	     -0.03489286	     10.26679126	      9.44599478	      2.78952996	    -21.55964515	     26.74330331	     -9.69894057	     45.14413584	     -4.69414148	      1.94808990	    -31.40164938	     15.55998515	      0.28122632	     -2.58310002	      5.03815114	     10.22332874
      1.40000000	    -12.85961323	      2.33605440	    -33.64660248	     -0.89679970	      0.95054131	     -0.03245802	     10.16539855	      9.27908034	      3.14638355	    -21.88934152	     26.97895107	     -9.33857698	     45.14556565	     -4.70296583	      1.69441267	    -30.67187289	     15.43137011	      0.55811308	     -2.50934550	      4.91061883	     10.44655947
      1.41000000	    -12.88755004	      2.50853148	    -34.00751950	     -0.89138119	      0.94954010	     -0.02998645	     10.08579091	      9.10333268	      3.53489289	    -22.27722608	     27.16419489	     -9.14530171	     45.12323083	     -4.69193769	      1.46278515	    -30.06522154	     15.30401732	      0.65991455	     -2.43397048	      4.77896676	     10.65719096
      1.42000000	    -12.91088128	      2.67300949	    -34.36587724	     -0.88573545	      0.94855081	     -0.02749434	      9.99382729	      8.91816578	      3.91151645	    -22.67956418	     27.36200775	     -8.70744414	     45.06532394	     -4.64693941	      1.29899823	    -29.58633418	     15.21229814	      0.74378921	     -2.35207526	      4.65890494	     10.87231256
      1.43000000	    -12.93680864	      2.84071363	    -34.72452354	     -0.87989390	      0.94756333	     -0.02494740	      9.89976472	      8.72911840	      4.30586864	    -23.08755463	     27.49364828	     -8.52421817	     44.99282947	     -4.57342958	      1.18376197	    -29.25652846	     15.04656723	      0.72484761	     -2.24640093	      4.53786895	     11.07586297
      1.44000000	    -12.94139333	      2.99235440	    -35.06613214	     -0.87382076	      0.94660653	     -0.02240726	      9.80016012	      8.52317498	      4.65564780	    -23.56001563	     27.64579255	     -7.92671752	     44.89424575	     -4.45687305	      1.13697102	    -29.11261436	     14.86003673	      0.54477328	     -2.15921670	      4.42746166	     11.22282069
      1.45000000	    -12.94346719	      3.13699919	    -35.38371985	     -0.86750282	      0.94569963	     -0.01983827	      9.68226888	      8.31164733	      4.98825884	    -24.02603044	     27.73356446	     -7.47270638	     44.78409625	     -4.30295183	      1.15386782	    -29.13330069	     14.53721862	      0.31102409	     -2.05482634	      4.32457285	     11.34175421
      1.46000000	    -12.92624369	      3.27692804	    -35.67519493	     -0.86093865	      0.94487432	     -0.01725003	      9.54942719	      8.07919442	      5.28389781	    -24.51711880	     27.77852122	     -6.99781751	     44.65370414	     -4.10248768	      1.23211772	    -29.31535478	     14.10237775	      0.02250427	     -1.94948064	      4.21469264	     11.43075817
      1.47000000	    -12.89592369	      3.38494664	    -35.91640031	     -0.85412091	      0.94416646	     -0.01464060	      9.37840006	      7.85324036	      5.53670289	    -25.00826029	     27.76416763	     -6.42050225	     44.51167373	     -3.87287428	      1.37452486	    -29.66195654	     13.54227566	     -0.33238838	     -1.85385045	      4.12566777	     11.43767508
      1.48000000	    -12.83964228	      3.47876253	    -36.12134526	     -0.84707536	      0.94360380	     -0.01198958	      9.18274125	      7.61499460	      5.75221440	    -25.52425913	     27.69028286	     -5.81847176	     44.34709426	     -3.61327864	      1.54675935	    -30.13009724	     12.91206526	     -0.68469178	     -1.76908346	      4.02757260	     11.39872999
      1.49000000	    -12.75082373	      3.55850979	    -36.28694028	     -0.83981861	      0.94321128	     -0.00929974	      8.96900813	      7.35999527	      5.91294718	    -26.08377385	     27.55175549	     -5.19282464	     44.15175416	     -3.32431966	      1.74529518	    -30.68082463	     12.25784414	     -1.01568502	     -1.70295761	      3.91194661	     11.32794109
      1.50000000	    -12.63924706	      3.60645137	    -36.41679398	     -0.83237774	      0.94300890	     -0.00654929	      8.73000218	      7.11628520	      6.05163390	    -26.67559066	     27.33321811	     -4.48798751	     43.92944213	     -3.04042779	      1.93648352	    -31.29274957	     11.62268858	     -1.34205578	     -1.66024380	      3.80171592	     11.21108383
      1.51000000	    -12.50126288	      3.63569113	    -36.51999055	     -0.82477248	      0.94299564	     -0.00373001	      8.48563174	      6.87195344	      6.16220590	    -27.32516851	     27.04635169	     -3.70576918	     43.67251088	     -2.75907983	      2.10443406	    -31.92426344	     11.07261927	     -1.66178652	     -1.63529686	      3.67964123	     11.07231768
